<?xml version="1.0" encoding="UTF-8" ?>
<!DOCTYPE svg PUBLIC "-//W3C//DTD SVG 1.1//EN" "http://www.w3.org/Graphics/SVG/1.1/DTD/svg11.dtd">
<svg width="500pt" height="500pt" viewBox="0 0 500 500" version="1.1" xmlns="http://www.w3.org/2000/svg">
<g id="#ffffffff">
</g>
<g id="#f5bb32ff">
<path fill="#f5bb32" opacity="1.00" d=" M 154.64 86.64 C 204.75 58.52 268.36 56.25 320.39 80.59 C 325.22 82.62 329.62 85.60 334.60 87.29 C 332.65 88.60 330.70 89.92 328.77 91.27 C 318.46 85.58 307.63 80.69 296.30 77.42 C 249.11 62.01 195.61 68.71 153.06 94.02 C 142.86 99.79 133.64 107.10 124.71 114.64 C 87.03 148.58 65.00 199.26 66.23 250.00 C 66.82 280.73 75.63 311.25 91.44 337.61 C 95.46 344.78 100.66 351.18 105.07 358.10 C 106.36 361.76 107.54 365.45 108.86 369.11 C 102.60 364.98 98.94 358.22 94.61 352.32 C 65.54 312.77 55.13 260.95 63.84 212.93 C 68.89 186.32 79.57 160.64 95.80 138.89 C 103.96 127.22 114.26 117.31 124.52 107.52 C 133.98 99.78 143.71 92.22 154.64 86.64 Z" />
<path fill="#f5bb32" opacity="1.00" d=" M 368.89 114.90 C 370.59 115.89 372.25 116.96 373.68 118.32 C 401.85 146.38 419.95 184.11 424.79 223.54 C 426.53 238.97 426.86 254.64 424.63 270.04 C 421.72 294.47 413.37 318.06 401.24 339.40 C 393.17 351.97 384.34 364.15 373.60 374.60 C 343.65 406.09 301.48 425.32 258.24 428.54 C 242.52 430.19 226.63 428.80 211.06 426.34 C 201.57 425.00 192.58 421.50 183.19 419.72 C 185.15 418.70 187.01 417.52 188.80 416.23 C 196.40 416.49 203.47 419.75 210.97 420.77 C 261.79 430.62 316.46 416.25 356.36 383.42 C 363.77 377.52 370.68 370.96 376.62 363.57 C 405.42 331.01 421.50 287.47 420.69 244.00 C 420.68 222.34 416.02 200.82 408.08 180.72 C 401.77 164.20 392.29 149.12 381.81 134.95 C 377.46 128.30 372.24 122.18 368.89 114.90 Z" />
</g>
<g id="#056896ff">
<path fill="#056896" opacity="1.00" d=" M 334.60 87.29 C 344.29 80.62 354.36 74.49 364.84 69.14 C 362.97 76.27 361.40 83.57 361.61 90.99 C 361.69 99.47 364.72 107.62 368.89 114.90 C 372.24 122.18 377.46 128.30 381.81 134.95 C 381.41 134.50 380.60 133.58 380.20 133.12 C 341.28 142.80 302.20 154.64 267.77 175.73 C 252.41 185.08 237.64 195.41 223.47 206.48 C 219.13 209.86 214.95 213.47 210.35 216.50 C 212.63 212.53 215.59 209.01 218.41 205.43 C 236.65 182.16 255.72 159.52 276.02 138.02 C 292.19 120.92 309.48 104.80 328.77 91.27 C 330.70 89.92 332.65 88.60 334.60 87.29 Z" />
<path fill="#056896" opacity="1.00" d=" M 249.40 96.64 C 258.97 93.63 269.66 101.98 268.95 112.00 C 269.55 120.65 261.63 128.55 252.99 127.94 C 244.27 127.93 237.17 119.52 238.01 110.96 C 238.38 104.42 243.01 98.33 249.40 96.64 Z" />
<path fill="#056896" opacity="1.00" d=" M 156.95 204.89 C 182.16 183.56 210.63 166.07 241.10 153.34 C 234.86 166.00 228.64 178.69 221.86 191.06 C 226.84 178.94 233.48 167.55 238.51 155.45 C 234.10 158.32 230.17 161.82 226.08 165.11 C 215.58 173.60 205.06 182.07 194.55 190.55 C 180.78 201.69 168.27 214.42 157.76 228.69 C 152.17 229.53 149.90 235.30 146.52 239.08 C 146.00 235.80 145.90 232.39 144.70 229.26 C 142.35 226.83 138.40 226.09 135.24 227.19 C 128.51 230.09 121.56 233.47 114.00 232.72 C 107.65 232.87 101.66 228.48 99.96 222.36 C 98.45 216.21 99.32 209.62 101.77 203.83 C 107.81 189.35 119.72 177.47 134.11 171.29 C 140.57 168.80 148.18 167.09 154.68 170.35 C 159.86 172.71 163.00 178.38 162.84 184.00 C 163.39 191.44 160.41 198.48 156.95 204.89 M 135.46 185.62 C 129.27 187.07 124.02 191.21 120.16 196.14 C 117.10 200.02 114.84 204.87 115.22 209.92 C 115.25 212.92 117.46 215.79 120.40 216.50 C 123.71 217.21 127.21 216.64 130.25 215.19 C 137.50 211.76 143.44 205.37 145.87 197.68 C 146.92 194.34 146.98 190.15 144.36 187.49 C 142.00 185.31 138.50 184.88 135.46 185.62 Z" />
<path fill="#056896" opacity="1.00" d=" M 250.40 210.64 C 256.78 208.95 264.27 211.56 267.63 217.38 C 272.01 224.35 270.29 234.67 263.29 239.29 C 256.57 244.07 246.19 242.18 241.75 235.17 C 235.71 226.77 240.11 213.12 250.40 210.64 Z" />
<path fill="#056896" opacity="1.00" d=" M 187.95 309.61 C 189.12 309.86 190.27 310.19 191.40 310.59 C 194.49 314.11 196.86 318.20 199.99 321.70 C 200.26 317.79 200.19 313.87 200.14 309.96 C 201.89 309.95 203.63 309.93 205.38 309.93 C 205.48 317.66 205.42 325.39 205.39 333.13 C 204.57 333.08 202.95 332.98 202.14 332.93 C 199.15 328.94 196.17 324.94 193.20 320.95 C 193.14 324.99 193.17 329.03 193.14 333.08 C 191.39 333.07 189.65 333.07 187.91 333.06 C 187.85 325.25 187.77 317.43 187.95 309.61 Z" />
<path fill="#056896" opacity="1.00" d=" M 225.53 313.22 C 225.42 311.32 227.18 309.97 228.98 310.08 C 233.15 309.91 237.45 309.53 241.53 310.57 C 242.79 311.65 242.63 313.44 242.79 314.93 C 242.91 320.94 242.85 326.95 242.77 332.95 C 241.03 332.94 239.29 332.92 237.56 332.90 C 237.60 329.62 237.59 326.34 237.54 323.07 C 235.22 323.08 232.90 323.09 230.59 323.09 C 230.58 326.38 230.59 329.67 230.57 332.96 C 228.85 332.95 227.13 332.95 225.41 332.95 C 225.50 326.37 225.24 319.79 225.53 313.22 M 230.58 315.04 C 230.58 315.77 230.59 317.23 230.59 317.96 C 232.95 317.92 235.30 317.90 237.66 317.84 C 237.67 317.17 237.68 315.83 237.69 315.16 C 235.32 315.11 232.95 315.08 230.58 315.04 Z" />
<path fill="#056896" opacity="1.00" d=" M 262.83 310.10 C 267.68 310.23 272.73 309.28 277.46 310.48 C 281.86 313.82 277.50 319.71 279.07 324.09 C 279.51 326.98 280.40 331.71 276.72 332.81 C 272.12 333.44 267.45 332.93 262.83 332.92 C 262.82 325.31 262.82 317.70 262.83 310.10 M 268.13 316.08 C 268.14 316.79 268.15 318.19 268.16 318.90 C 270.09 318.91 272.02 318.91 273.96 318.92 C 273.93 318.22 273.88 316.81 273.85 316.10 C 271.94 316.09 270.03 316.08 268.13 316.08 M 268.10 324.11 C 268.11 324.80 268.13 326.18 268.14 326.88 C 270.07 326.89 272.01 326.91 273.96 326.93 C 273.95 326.22 273.94 324.78 273.93 324.07 C 271.98 324.08 270.04 324.09 268.10 324.11 Z" />
<path fill="#056896" opacity="1.00" d=" M 299.52 313.21 C 299.34 311.33 301.28 310.07 302.98 310.05 C 306.90 309.85 310.87 309.69 314.76 310.29 C 316.48 310.48 316.63 312.66 316.76 314.02 C 316.98 320.29 316.80 326.58 316.79 332.87 C 315.08 332.91 313.37 332.95 311.67 333.00 C 311.59 329.70 311.57 326.41 311.60 323.12 C 309.27 323.09 306.94 323.08 304.62 323.06 C 304.57 326.35 304.57 329.64 304.56 332.94 C 302.84 332.93 301.13 332.91 299.42 332.90 C 299.48 326.34 299.26 319.77 299.52 313.21 M 304.60 315.03 C 304.59 315.76 304.59 317.24 304.59 317.98 C 306.95 317.92 309.32 317.88 311.69 317.82 C 311.69 317.16 311.68 315.84 311.68 315.18 C 309.32 315.12 306.95 315.07 304.60 315.03 Z" />
<path fill="#056896" opacity="1.00" d=" M 187.26 342.05 C 187.90 342.08 189.18 342.14 189.82 342.18 C 189.92 342.85 190.13 344.20 190.23 344.88 C 189.48 344.88 187.98 344.89 187.22 344.89 C 187.23 344.18 187.25 342.76 187.26 342.05 Z" />
<path fill="#056896" opacity="1.00" d=" M 191.24 342.28 C 192.72 341.13 194.32 343.69 192.87 344.69 C 191.38 345.85 189.81 343.26 191.24 342.28 Z" />
<path fill="#056896" opacity="1.00" d=" M 199.61 341.93 C 200.33 342.00 201.79 342.13 202.52 342.19 C 202.45 346.79 202.47 351.39 202.50 355.98 C 204.05 355.95 205.60 355.92 207.15 355.90 C 207.51 353.72 206.70 350.91 208.25 349.17 C 210.99 348.87 213.91 348.56 216.56 349.49 C 217.56 352.37 217.71 355.70 216.68 358.60 C 214.89 359.07 213.02 359.01 211.19 359.11 C 212.01 356.59 214.43 354.90 214.59 352.12 C 213.19 352.07 211.80 352.03 210.41 352.00 C 210.28 354.22 210.05 356.44 209.67 358.64 C 203.99 359.28 198.22 359.29 192.54 358.62 C 192.24 356.76 191.99 354.89 191.75 353.03 C 190.51 353.06 189.28 353.08 188.04 353.11 C 188.05 353.74 188.08 355.00 188.09 355.62 C 188.79 355.80 190.19 356.17 190.89 356.35 C 190.88 357.04 190.87 358.42 190.86 359.11 C 189.01 359.00 187.17 358.89 185.33 358.74 C 185.15 355.96 185.14 353.17 185.33 350.39 C 188.42 349.89 191.55 349.86 194.65 350.19 C 194.86 352.13 195.04 354.07 195.23 356.02 C 196.67 355.96 198.12 355.92 199.57 355.88 C 199.52 351.23 199.53 346.58 199.61 341.93 Z" />
<path fill="#056896" opacity="1.00" d=" M 221.52 342.06 C 222.49 342.08 223.46 342.11 224.44 342.14 C 224.47 346.74 224.45 351.34 224.46 355.95 C 230.26 355.93 236.05 356.01 241.85 355.91 C 241.85 354.63 241.86 353.34 241.87 352.06 C 237.32 351.90 232.74 352.35 228.22 351.75 C 226.32 351.21 227.08 349.20 228.20 348.28 C 231.10 345.47 233.70 341.31 238.31 341.88 C 236.22 344.33 233.89 346.58 231.65 348.90 C 235.93 348.92 240.23 348.82 244.50 349.33 C 244.63 351.51 244.73 353.69 244.82 355.88 C 247.17 355.91 249.52 355.95 251.87 356.00 C 251.94 353.98 252.02 351.96 252.10 349.95 C 252.77 349.96 254.11 349.97 254.78 349.98 C 254.81 351.95 254.84 353.93 254.88 355.91 C 256.30 355.90 257.73 355.90 259.16 355.90 C 259.27 353.69 259.41 351.49 259.56 349.30 C 262.60 348.89 265.68 348.89 268.74 349.27 C 269.33 352.39 269.36 355.57 269.01 358.72 C 267.11 358.87 265.21 359.00 263.31 359.10 C 263.31 357.11 264.85 355.93 266.30 354.85 C 266.29 354.15 266.29 352.75 266.28 352.06 C 264.95 352.06 263.62 352.06 262.30 352.07 C 262.27 354.10 262.24 356.12 262.22 358.15 C 260.22 358.74 258.15 359.13 256.06 359.09 C 246.01 359.03 235.97 359.08 225.92 359.03 C 224.48 358.80 222.22 359.31 221.73 357.45 C 221.28 352.33 221.65 347.18 221.52 342.06 Z" />
<path fill="#056896" opacity="1.00" d=" M 247.39 342.17 C 248.11 342.12 249.55 342.02 250.27 341.97 C 250.27 342.72 250.28 344.22 250.29 344.97 C 249.54 344.93 248.04 344.86 247.30 344.82 C 247.32 344.16 247.37 342.84 247.39 342.17 Z" />
<path fill="#056896" opacity="1.00" d=" M 279.23 342.31 C 280.68 341.15 282.41 343.63 280.90 344.65 C 279.45 345.79 277.73 343.31 279.23 342.31 Z" />
<path fill="#056896" opacity="1.00" d=" M 282.82 342.31 C 284.32 341.15 285.89 343.66 284.46 344.68 C 282.97 345.86 281.32 343.31 282.82 342.31 Z" />
<path fill="#056896" opacity="1.00" d=" M 297.34 348.03 C 298.90 345.55 299.69 341.86 303.16 341.58 C 303.40 343.72 303.44 345.88 303.27 348.02 C 301.29 348.04 299.31 348.05 297.34 348.03 Z" />
<path fill="#056896" opacity="1.00" d=" M 293.12 349.05 C 293.81 349.05 295.18 349.05 295.86 349.05 C 295.88 352.24 295.88 355.44 295.60 358.62 C 291.79 359.23 287.91 359.21 284.08 358.73 C 283.79 356.84 283.59 354.93 283.43 353.04 C 282.04 353.08 280.65 353.13 279.27 353.19 C 279.33 353.70 279.46 354.72 279.52 355.23 C 281.17 356.02 283.06 356.89 282.55 359.10 C 280.63 359.01 278.73 358.90 276.82 358.77 C 276.56 355.95 276.57 353.12 276.87 350.31 C 280.01 349.86 283.20 349.86 286.34 350.39 C 286.43 352.25 286.50 354.11 286.60 355.97 C 288.69 356.00 290.77 356.03 292.86 356.04 C 292.93 353.71 293.01 351.38 293.12 349.05 Z" />
<path fill="#056896" opacity="1.00" d=" M 298.21 350.34 C 300.71 347.68 305.12 348.95 308.25 349.81 C 308.17 355.11 308.72 360.46 307.76 365.71 C 304.45 366.07 301.12 366.07 297.80 365.93 C 297.82 365.23 297.84 363.83 297.85 363.12 C 300.36 363.01 302.87 362.91 305.38 362.82 C 305.39 361.63 305.41 360.43 305.43 359.24 C 303.03 359.09 300.64 358.90 298.25 358.62 C 298.00 355.88 297.46 353.05 298.21 350.34 M 300.75 352.03 C 300.73 353.35 300.71 354.67 300.70 356.00 C 302.30 355.93 303.91 355.87 305.52 355.81 C 305.51 354.59 305.51 353.38 305.52 352.17 C 303.93 352.12 302.34 352.07 300.75 352.03 Z" />
<path fill="#056896" opacity="1.00" d=" M 313.72 348.91 C 314.46 348.96 315.95 349.05 316.69 349.09 C 316.68 354.58 316.89 360.08 316.48 365.56 C 314.49 365.81 312.49 365.99 310.50 366.15 C 309.85 363.76 311.95 363.01 313.76 362.39 C 313.68 357.90 313.73 353.40 313.72 348.91 Z" />
<path fill="#056896" opacity="1.00" d=" M 288.42 362.25 C 289.09 362.16 290.43 361.99 291.09 361.91 C 291.11 362.72 291.15 364.35 291.17 365.17 C 290.49 365.06 289.12 364.85 288.44 364.75 C 288.43 364.12 288.43 362.88 288.42 362.25 Z" />
<path fill="#056896" opacity="1.00" d=" M 291.85 361.86 C 292.56 361.96 293.97 362.14 294.68 362.23 C 294.68 362.87 294.69 364.16 294.69 364.80 C 293.97 364.89 292.53 365.08 291.81 365.17 C 291.82 364.34 291.84 362.69 291.85 361.86 Z" />
</g>
<g id="#033249ff">
<path fill="#033249" opacity="1.00" d=" M 209.27 217.21 C 209.85 217.75 209.85 217.75 209.27 217.21 Z" />
<path fill="#033249" opacity="1.00" d=" M 135.24 227.19 C 138.40 226.09 142.35 226.83 144.70 229.26 C 145.90 232.39 146.00 235.80 146.52 239.08 C 149.90 235.30 152.17 229.53 157.76 228.69 C 152.43 236.07 147.92 244.05 144.16 252.34 C 134.52 273.76 131.70 298.05 135.91 321.14 C 141.17 350.79 156.09 377.93 174.78 401.22 C 179.15 406.49 183.46 411.90 188.80 416.23 C 187.01 417.52 185.15 418.70 183.19 419.72 C 171.79 425.23 160.35 430.66 148.90 436.05 C 140.11 423.76 130.98 411.67 123.38 398.59 C 117.81 389.15 112.99 379.26 108.86 369.11 C 107.54 365.45 106.36 361.76 105.07 358.10 C 100.96 344.47 98.45 330.27 98.64 316.01 C 98.68 289.81 107.99 264.21 122.84 242.82 C 126.69 237.41 130.47 231.85 135.24 227.19 Z" />
<path fill="#033249" opacity="1.00" d=" M 251.21 341.93 C 251.79 342.04 252.94 342.26 253.52 342.37 C 253.51 342.93 253.50 344.04 253.50 344.60 C 252.93 344.71 251.78 344.93 251.21 345.04 C 251.21 344.27 251.21 342.71 251.21 341.93 Z" />
</g>
</svg>
