<svg width="488" height="497" viewBox="0 0 488 497" fill="none" xmlns="http://www.w3.org/2000/svg">
<path d="M125.187 30.52C192 -6.97332 276.813 -9.99999 346.187 22.4533C352.627 25.16 358.493 29.1333 365.133 31.3867C362.533 33.1333 359.933 34.8933 357.36 36.6933C343.613 29.1067 329.173 22.5867 314.067 18.2267C251.147 -2.31999 179.813 6.61334 123.08 40.36C109.48 48.0533 97.1866 57.8 85.28 67.8533C35.04 113.107 5.66663 180.68 7.30663 248.333C8.0933 289.307 19.84 330 40.92 365.147C46.28 374.707 53.2133 383.24 59.0933 392.467C60.8133 397.347 62.3866 402.267 64.1466 407.147C55.8 401.64 50.92 392.627 45.1466 384.76C6.38663 332.027 -7.49337 262.933 4.11996 198.907C10.8533 163.427 25.0933 129.187 46.7333 100.187C57.6133 84.6267 71.3466 71.4133 85.0266 58.36C97.64 48.04 110.613 37.96 125.187 30.52Z" fill="white"/>
<path d="M410.853 68.2C413.12 69.52 415.333 70.9467 417.24 72.76C454.8 110.173 478.933 160.48 485.387 213.053C487.707 233.627 488.147 254.52 485.173 275.053C481.293 307.627 470.16 339.08 453.987 367.533C443.227 384.293 431.453 400.533 417.133 414.467C377.2 456.453 320.973 482.093 263.32 486.387C242.36 488.587 221.173 486.733 200.413 483.453C187.76 481.667 175.773 477 163.253 474.627C165.867 473.267 168.347 471.693 170.733 469.973C180.867 470.32 190.293 474.667 200.293 476.027C268.053 489.16 340.947 470 394.147 426.227C404.027 418.36 413.24 409.613 421.16 399.76C459.56 356.347 481 298.293 479.92 240.333C479.907 211.453 473.693 182.76 463.107 155.96C454.693 133.933 442.053 113.827 428.08 94.9333C422.28 86.0667 415.32 77.9067 410.853 68.2Z" fill="white"/>
<path d="M365.133 31.3867C378.053 22.4933 391.48 14.32 405.453 7.18668C402.96 16.6933 400.867 26.4267 401.147 36.32C401.253 47.6267 405.293 58.4933 410.853 68.2C415.32 77.9067 422.28 86.0667 428.08 94.9333C427.547 94.3333 426.467 93.1067 425.933 92.4933C374.04 105.4 321.933 121.187 276.027 149.307C255.547 161.773 235.853 175.547 216.96 190.307C211.173 194.813 205.6 199.627 199.467 203.667C202.507 198.373 206.453 193.68 210.213 188.907C234.533 157.88 259.96 127.693 287.027 99.0267C308.587 76.2267 331.64 54.7333 357.36 36.6933C359.933 34.8933 362.533 33.1333 365.133 31.3867Z" fill="white"/>
<path d="M251.533 43.8533C264.293 39.84 278.547 50.9733 277.6 64.3333C278.4 75.8667 267.84 86.4 256.32 85.5867C244.693 85.5733 235.227 74.36 236.347 62.9467C236.84 54.2267 243.013 46.1067 251.533 43.8533Z" fill="white"/>
<path d="M128.267 188.187C161.88 159.747 199.84 136.427 240.467 119.453C232.147 136.333 223.853 153.253 214.813 169.747C221.453 153.587 230.307 138.4 237.013 122.267C231.133 126.093 225.893 130.76 220.44 135.147C206.44 146.467 192.413 157.76 178.4 169.067C160.04 183.92 143.36 200.893 129.347 219.92C121.893 221.04 118.867 228.733 114.36 233.773C113.667 229.4 113.533 224.853 111.933 220.68C108.8 217.44 103.533 216.453 99.32 217.92C90.3466 221.787 81.08 226.293 71 225.293C62.5333 225.493 54.5466 219.64 52.28 211.48C50.2666 203.28 51.4266 194.493 54.6933 186.773C62.7466 167.467 78.6266 151.627 97.8133 143.387C106.427 140.067 116.573 137.787 125.24 142.133C132.147 145.28 136.333 152.84 136.12 160.333C136.853 170.253 132.88 179.64 128.267 188.187ZM99.6133 162.493C91.36 164.427 84.36 169.947 79.2133 176.52C75.1333 181.693 72.12 188.16 72.6266 194.893C72.6666 198.893 75.6133 202.72 79.5333 203.667C83.9466 204.613 88.6133 203.853 92.6666 201.92C102.333 197.347 110.253 188.827 113.493 178.573C114.893 174.12 114.973 168.533 111.48 164.987C108.333 162.08 103.667 161.507 99.6133 162.493Z" fill="white"/>
<path d="M252.867 195.853C261.373 193.6 271.36 197.08 275.84 204.84C281.68 214.133 279.387 227.893 270.053 234.053C261.093 240.427 247.253 237.907 241.333 228.56C233.28 217.36 239.147 199.16 252.867 195.853Z" fill="white"/>
<path d="M169.6 327.813C171.16 328.147 172.693 328.587 174.2 329.12C178.32 333.813 181.48 339.267 185.653 343.933C186.013 338.72 185.92 333.493 185.853 328.28C188.187 328.267 190.507 328.24 192.84 328.24C192.973 338.547 192.893 348.853 192.853 359.173C191.76 359.107 189.6 358.973 188.52 358.907C184.533 353.587 180.56 348.253 176.6 342.933C176.52 348.32 176.56 353.707 176.52 359.107C174.187 359.093 171.867 359.093 169.547 359.08C169.467 348.667 169.36 338.24 169.6 327.813Z" fill="white"/>
<path d="M219.707 332.627C219.56 330.093 221.907 328.293 224.307 328.44C229.867 328.213 235.6 327.707 241.04 329.093C242.72 330.533 242.507 332.92 242.72 334.907C242.88 342.92 242.8 350.933 242.693 358.933C240.373 358.92 238.053 358.893 235.747 358.867C235.8 354.493 235.787 350.12 235.72 345.76C232.627 345.773 229.533 345.787 226.453 345.787C226.44 350.173 226.453 354.56 226.427 358.947C224.133 358.933 221.84 358.933 219.547 358.933C219.667 350.16 219.32 341.387 219.707 332.627ZM226.44 335.053C226.44 336.027 226.453 337.973 226.453 338.947C229.6 338.893 232.733 338.867 235.88 338.787C235.893 337.893 235.907 336.107 235.92 335.213C232.76 335.147 229.6 335.107 226.44 335.053Z" fill="white"/>
<path d="M269.44 328.467C275.907 328.64 282.64 327.373 288.947 328.973C294.813 333.427 289 341.28 291.093 347.12C291.68 350.973 292.867 357.28 287.96 358.747C281.827 359.587 275.6 358.907 269.44 358.893C269.427 348.747 269.427 338.6 269.44 328.467ZM276.507 336.44C276.52 337.387 276.533 339.253 276.547 340.2C279.12 340.213 281.693 340.213 284.28 340.227C284.24 339.293 284.173 337.413 284.133 336.467C281.587 336.453 279.04 336.44 276.507 336.44ZM276.467 347.147C276.48 348.067 276.507 349.907 276.52 350.84C279.093 350.853 281.68 350.88 284.28 350.907C284.267 349.96 284.253 348.04 284.24 347.093C281.64 347.107 279.053 347.12 276.467 347.147Z" fill="white"/>
<path d="M318.36 332.613C318.12 330.107 320.707 328.427 322.973 328.4C328.2 328.133 333.493 327.92 338.68 328.72C340.973 328.973 341.173 331.88 341.347 333.693C341.64 342.053 341.4 350.44 341.387 358.827C339.107 358.88 336.827 358.933 334.56 359C334.453 354.6 334.427 350.213 334.467 345.827C331.36 345.787 328.253 345.773 325.16 345.747C325.093 350.133 325.093 354.52 325.08 358.92C322.787 358.907 320.507 358.88 318.227 358.867C318.307 350.12 318.013 341.36 318.36 332.613ZM325.133 335.04C325.12 336.013 325.12 337.987 325.12 338.973C328.267 338.893 331.427 338.84 334.587 338.76C334.587 337.88 334.573 336.12 334.573 335.24C331.427 335.16 328.267 335.093 325.133 335.04Z" fill="white"/>
<path d="M168.68 371.067C169.533 371.107 171.24 371.187 172.093 371.24C172.227 372.133 172.507 373.933 172.64 374.84C171.64 374.84 169.64 374.853 168.627 374.853C168.64 373.907 168.667 372.013 168.68 371.067Z" fill="white"/>
<path d="M173.987 371.373C175.96 369.84 178.093 373.253 176.16 374.587C174.173 376.133 172.08 372.68 173.987 371.373Z" fill="white"/>
<path d="M185.147 370.907C186.107 371 188.053 371.173 189.027 371.253C188.933 377.387 188.96 383.52 189 389.64C191.067 389.6 193.133 389.56 195.2 389.533C195.68 386.627 194.6 382.88 196.667 380.56C200.32 380.16 204.213 379.747 207.747 380.987C209.08 384.827 209.28 389.267 207.907 393.133C205.52 393.76 203.027 393.68 200.587 393.813C201.68 390.453 204.907 388.2 205.12 384.493C203.253 384.427 201.4 384.373 199.547 384.333C199.373 387.293 199.067 390.253 198.56 393.187C190.987 394.04 183.293 394.053 175.72 393.16C175.32 390.68 174.987 388.187 174.667 385.707C173.013 385.747 171.373 385.773 169.72 385.813C169.733 386.653 169.773 388.333 169.787 389.16C170.72 389.4 172.587 389.893 173.52 390.133C173.507 391.053 173.493 392.893 173.48 393.813C171.013 393.667 168.56 393.52 166.107 393.32C165.867 389.613 165.853 385.893 166.107 382.187C170.227 381.52 174.4 381.48 178.533 381.92C178.813 384.507 179.053 387.093 179.307 389.693C181.227 389.613 183.16 389.56 185.093 389.507C185.027 383.307 185.04 377.107 185.147 370.907Z" fill="white"/>
<path d="M214.36 371.08C215.653 371.107 216.947 371.147 218.253 371.187C218.293 377.32 218.267 383.453 218.28 389.6C226.013 389.573 233.733 389.68 241.467 389.547C241.467 387.84 241.48 386.12 241.493 384.413C235.427 384.2 229.32 384.8 223.293 384C220.76 383.28 221.773 380.6 223.267 379.373C227.133 375.627 230.6 370.08 236.747 370.84C233.96 374.107 230.853 377.107 227.867 380.2C233.573 380.227 239.307 380.093 245 380.773C245.173 383.68 245.307 386.587 245.427 389.507C248.56 389.547 251.693 389.6 254.827 389.667C254.92 386.973 255.027 384.28 255.133 381.6C256.027 381.613 257.813 381.627 258.707 381.64C258.747 384.267 258.787 386.907 258.84 389.547C260.733 389.533 262.64 389.533 264.547 389.533C264.693 386.587 264.88 383.653 265.08 380.733C269.133 380.187 273.24 380.187 277.32 380.693C278.107 384.853 278.147 389.093 277.68 393.293C275.147 393.493 272.613 393.667 270.08 393.8C270.08 391.147 272.133 389.573 274.067 388.133C274.053 387.2 274.053 385.333 274.04 384.413C272.267 384.413 270.493 384.413 268.733 384.427C268.693 387.133 268.653 389.827 268.627 392.533C265.96 393.32 263.2 393.84 260.413 393.787C247.013 393.707 233.627 393.773 220.227 393.707C218.307 393.4 215.293 394.08 214.64 391.6C214.04 384.773 214.533 377.907 214.36 371.08Z" fill="white"/>
<path d="M248.853 371.227C249.813 371.16 251.733 371.027 252.693 370.96C252.693 371.96 252.707 373.96 252.72 374.96C251.72 374.907 249.72 374.813 248.733 374.76C248.76 373.88 248.827 372.12 248.853 371.227Z" fill="white"/>
<path d="M291.307 371.413C293.24 369.867 295.547 373.173 293.533 374.533C291.6 376.053 289.307 372.747 291.307 371.413Z" fill="white"/>
<path d="M296.093 371.413C298.093 369.867 300.187 373.213 298.28 374.573C296.293 376.147 294.093 372.747 296.093 371.413Z" fill="white"/>
<path d="M315.453 379.04C317.533 375.733 318.587 370.813 323.213 370.44C323.533 373.293 323.587 376.173 323.36 379.027C320.72 379.053 318.08 379.067 315.453 379.04Z" fill="white"/>
<path d="M309.827 380.4C310.747 380.4 312.573 380.4 313.48 380.4C313.507 384.653 313.507 388.92 313.133 393.16C308.053 393.973 302.88 393.947 297.773 393.307C297.387 390.787 297.12 388.24 296.907 385.72C295.053 385.773 293.2 385.84 291.36 385.92C291.44 386.6 291.613 387.96 291.693 388.64C293.893 389.693 296.413 390.853 295.733 393.8C293.173 393.68 290.64 393.533 288.093 393.36C287.747 389.6 287.76 385.827 288.16 382.08C292.347 381.48 296.6 381.48 300.787 382.187C300.907 384.667 301 387.147 301.133 389.627C303.92 389.667 306.693 389.707 309.48 389.72C309.573 386.613 309.68 383.507 309.827 380.4Z" fill="white"/>
<path d="M316.613 382.12C319.947 378.573 325.827 380.267 330 381.413C329.893 388.48 330.627 395.613 329.347 402.613C324.933 403.093 320.493 403.093 316.067 402.907C316.093 401.973 316.12 400.107 316.133 399.16C319.48 399.013 322.827 398.88 326.173 398.76C326.187 397.173 326.213 395.573 326.24 393.987C323.04 393.787 319.853 393.533 316.667 393.16C316.333 389.507 315.613 385.733 316.613 382.12ZM320 384.373C319.973 386.133 319.947 387.893 319.933 389.667C322.067 389.573 324.213 389.493 326.36 389.413C326.347 387.787 326.347 386.173 326.36 384.56C324.24 384.493 322.12 384.427 320 384.373Z" fill="white"/>
<path d="M337.293 380.213C338.28 380.28 340.267 380.4 341.253 380.453C341.24 387.773 341.52 395.107 340.973 402.413C338.32 402.747 335.653 402.987 333 403.2C332.133 400.013 334.933 399.013 337.347 398.187C337.24 392.2 337.307 386.2 337.293 380.213Z" fill="white"/>
<path d="M303.56 398C304.453 397.88 306.24 397.653 307.12 397.547C307.147 398.627 307.2 400.8 307.227 401.893C306.32 401.747 304.493 401.467 303.587 401.333C303.573 400.493 303.573 398.84 303.56 398Z" fill="white"/>
<path d="M308.133 397.48C309.08 397.613 310.96 397.853 311.907 397.973C311.907 398.827 311.92 400.547 311.92 401.4C310.96 401.52 309.04 401.773 308.08 401.893C308.093 400.787 308.12 398.587 308.133 397.48Z" fill="white"/>
<path d="M198.027 204.613C198.8 205.333 198.8 205.333 198.027 204.613Z" fill="white"/>
<path d="M99.32 217.92C103.533 216.453 108.8 217.44 111.933 220.68C113.533 224.853 113.667 229.4 114.36 233.773C118.867 228.733 121.893 221.04 129.347 219.92C122.24 229.76 116.227 240.4 111.213 251.453C98.36 280.013 94.6 312.4 100.213 343.187C107.227 382.72 127.12 418.907 152.04 449.96C157.867 456.987 163.613 464.2 170.733 469.973C168.347 471.693 165.867 473.267 163.253 474.627C148.053 481.973 132.8 489.213 117.533 496.4C105.813 480.013 93.64 463.893 83.5066 446.453C76.08 433.867 69.6533 420.68 64.1466 407.147C62.3866 402.267 60.8133 397.347 59.0933 392.467C53.6133 374.293 50.2666 355.36 50.52 336.347C50.5733 301.413 62.9866 267.28 82.7866 238.76C87.92 231.547 92.96 224.133 99.32 217.92Z" fill="white"/>
<path d="M253.947 370.907C254.72 371.053 256.253 371.347 257.027 371.493C257.013 372.24 257 373.72 257 374.467C256.24 374.613 254.707 374.907 253.947 375.053C253.947 374.027 253.947 371.947 253.947 370.907Z" fill="white"/>
</svg>
