<?xml version="1.0" encoding="utf-8"?>
<!-- Generator: Adobe Illustrator 21.0.2, SVG Export Plug-In . SVG Version: 6.00 Build 0)  -->
<svg version="1.1" id="Layer_1" xmlns="http://www.w3.org/2000/svg" xmlns:xlink="http://www.w3.org/1999/xlink" x="0px" y="0px"
	 viewBox="0 0 446.3 762.9" style="enable-background:new 0 0 446.3 762.9;" xml:space="preserve">
<style type="text/css">
	.st0{clip-path:url(#SVGID_2_);}
	.st1{fill:#FFFFFF;}
</style>
<title>لوجو المحترف</title>
<g>
	<defs>
		<rect id="SVGID_1_" x="-71.7" y="-43.7" width="595.3" height="841.9"/>
	</defs>
	<clipPath id="SVGID_2_">
		<use xlink:href="#SVGID_1_"  style="overflow:visible;"/>
	</clipPath>
	<g class="st0">
		<path class="st1" d="M199.3,0c11.1,17.5,22.7,35.1,34.8,52.9c31.4,46.2,45.1,62.3,87.8,120c42.1,56.8,87,119.5,111.8,183.8
			c4.9,12.8,7.7,22.2,9.7,32.7c6.3,33.8,0.8,63.5-7.1,104.2c-2.3,11.6-3.4,17.3-5,23.4c-4.2,15.4-23.8,87.3-90.6,122.9
			c-39.6,21.1-78.6,20.3-99.4,18.1c18.5-6,36.5-13.5,53.8-22.5c25.3-13.2,56.9-30,82.7-62.6c30-37.9,38-79.3,46.3-122.2
			c3.2-16.6,5.4-33.4,6.6-50.2c0,0-0.2-1.4-0.5-2.9c-9.4-50.7-77.1-139.9-77.1-139.9c-18.9-24.9-35.7-51.1-54-76.4
			c-24-33.2-58.2-80.7-99.8-139.2L199.3,0z"/>
		<path class="st1" d="M371.5,407.3c4.3-2.6,9.3-3.8,14.3-3.6c5.6,0.3,14.9,2.9,17.4,9.7c0.9,2.6,0.5,5-0.5,9.7
			c-1.2,5.5-3,10.8-5.6,15.8c-4.9,0.2-9.9,0.3-14.8,0.5c1.8,4.3,3,8.7,3.6,13.3c0.6,4.3,3,21.8-8.7,37.8
			c-11.3,15.5-28.1,18.8-31.8,19.5c19-15.8,24.3-31,26-39.6c0.7-3.4,1.1-7.1,1.2-21.2C372.6,431.6,372.1,417.2,371.5,407.3"/>
		<path class="st1" d="M262.8,565.6c-1.7-3.2-5-11-2.6-19.4c2.2-7.8,8.1-12,14.8-16.9c5.6-4,11.8-7.1,18.4-9.2l0.5,24
			C283.5,551.3,273.2,558.4,262.8,565.6"/>
		<path class="st1" d="M288.8,551.3c-1.7,6.1-8.3,30.9-0.5,35.2c1,0.6,3.7,1.6,11.2-2.6c16.7-9.2,25.5-26.5,29.8-38
			c-2.5,8.8-5.5,18.8-8.9,29.8c-6.8,22.1-8.7,26.8-13.8,30.5c-8.9,6.5-23.5,7.3-30.4,1C266.9,598.8,268.9,574.5,288.8,551.3"/>
		<path class="st1" d="M198,16.1c-6.7,11.8-12.5,24.1-17.4,36.8c-1,2.7-7.2,19-9.2,28.1c-5.8,25.8,17.6,53.7,54.6,100.1
			c12.2,15.3,32.2,40.4,57.3,72.9c-0.6,8.8-0.9,16.3-1.2,22.1c-0.6,16-0.3,20.8,1,26c1.3,5.2,3.4,10.3,6.1,14.9
			c-11.1,16.8-19.1,30.1-23,37.5c-3.8,6.7-5.3,14.4-4.4,22c0.8,8.3,3,23.8,6.4,43.5c5.8,0.7,11.6-0.2,16.9-2.5
			c4.9-2.2,7.6-5,17.9-15.3c5.6-5.6,9.9-9.9,12.2-12.2c0.6,9.4-0.5,18.9-3,28c-4.2,14.5-12.1,27.6-23,38c-4.2,2.4-7.4,2.4-9.2,2.1
			c-9.1-1.3-17-13.7-17.8-31.1c-2.9-0.6-5.9-0.6-8.8,0.2c-7.4,2.1-11.5,8.6-14.8,14.8c-10.7,19.7-13.3,32.2-13.3,32.2
			c-11.7,55.7-17.5,83.5-17.9,104.2c-0.2,6.3-0.9,12.5-2.1,18.7c-3.2,16.4-8.3,23.4-10.1,25.7c-3.5,4.5-6.8,8.7-12.3,9.7
			c-7.1,1.3-15.1-3.3-20.8-11.5l-27-42c-4.6,35.7,12,70.8,42.7,89.7c5.1,1.8,12.6,3.4,19.9,0.7c11-4,17.7-16.2,24-43.1
			c6.6-28.3,9.4-57.3,8.4-86.4c0.5-4.6,1.3-11.1,2.8-18.8c3.8-20,6.9-34.9,17.9-48c3.8-4.5,8.3-8.5,13.3-11.7
			c5.8,21.6,15.6,36.2,25.5,36.3c9.3,0.1,16.1-12.3,22.5-24c19.6-36.3,13.2-60.4,29.6-97.5c4.7-10.6,10.5-20.8,17.4-30.1l-2.1-27
			c-25.7,22.1-51.4,44.3-77.1,66.4c-1.6-4.1-2.1-8.4-1.5-12.8c0.7-4.4,3.1-6.5,11-17.9c1.7-2.4,3.3-4.9,5-7.3
			c27.9-39.7,24.8-85.6,24.8-85.6c-0.5-7.1-1.6-14.1-3.4-20.9c-1.7,1-3.3,2.1-4.8,3.4c-2.8,2.5-5.2,5.3-7.1,8.5
			c-2.7,4.2-5,8.6-6.8,13.3c-1.4,0.8-3.8,1.7-6,0.9c-8.2-3.4,2.7-28-8.2-51.6c-3.4-7.3-5.4-7-21.4-26c-10.9-12.9-19.1-24-24.4-31.3
			c-10.4-11.4-19.7-22-27.8-31.5c-16.2-19.1-21.8-27.1-23.4-38.4c-0.8-5.9-0.6-12,0.5-17.9c0.1-0.6,0.2-1.1,0.4-1.6
			c2-7.1,4-9.9,6.8-16.7c1.3-3.1,2.4-6.3,3-9.6c0.6-3.2,0.8-6.5,0.8-9.8C197.7,29.1,197.8,23.7,198,16.1"/>
		<path class="st1" d="M215.3,306l10.6-25l29.4,12.5c-3.7,9-7.3,18-11,27c-8.3-2.8-16.7-5.6-25-8.4l-12,24.9
			c-9.9-3.5-19.9-6.9-29.9-10.4c4-9.2,7.9-18.4,11.9-27.6L215.3,306z"/>
		<path class="st1" d="M121.3,329c-12.8,4.7-26.3,7.4-40,8c2.8-14.5,12-27,25-34c11.1-3.2,22.9-3.2,34,0c1.7,6.5,3.4,17.8-1.1,29.7
			c-7.7,20.4-30.4,34.2-57.2,34.7c6.4-2.1,21.7-8.1,32.2-23.5C117.3,339.4,119.7,334.3,121.3,329"/>
		<path class="st1" d="M86.1,405.3c9.5,2.9,19.1,5.8,28.6,8.7c-2.4,8.5-4.8,17-7.1,25.5c-9.5-2.7-19.1-5.4-28.6-8.2
			C81.3,422.6,83.7,413.9,86.1,405.3"/>
		<path class="st1" d="M95.8,460.4c-1.3,16.8,0.9,33.7,6.6,49.6c3.7-3.8,8.1-6.9,13-9c1.7,5,2.3,10.3,1.9,15.5
			c-0.5,4.9-1.1,11.5-5.1,13.9c-4.8,2.8-13.9-0.8-21.4-9.7c-2.3-6.6-3.7-13.5-4.1-20.4C86,486.4,89.1,472.6,95.8,460.4"/>
		<path class="st1" d="M128.5,638.1c-5,0.4-10,0.1-14.8-1c-7.6-1.7-14.7-5.2-20.8-10.1c-7.9-5.5-14.3-12.9-18.5-21.6
			c-1.8-3.6-3.1-7.5-4-11.4c10.6,14.3,21.3,21.8,28.5,25.7c1.6,0.9,13.1,7.1,15.8,4.1c2-2.2-2-7.5,0-9.7c1.9-2,7.5,0,12.8,2.6
			c5.2,2.7,8.1,8.2,7.1,13.3C133.6,635.1,129.2,637.7,128.5,638.1"/>
		<path class="st1" d="M171.3,158c0.3,15.3,0.7,30.7,1,46c-0.6,15.3-0.5,43.3,9,46c2.6,0.7,6.6-0.2,13-7c0.8,1.4,9,15.7,2,29
			c-0.8,1.5-5.6,10.7-13,11c-11.8,0.5-20.1-22.4-21-25c-4.6-13.2-3.6-24.5-2-37C162.4,204.7,165.7,183.3,171.3,158"/>
		<path class="st1" d="M192.3,405.3c-2.6,12.6-11,22-20,22.8c-13.2,1.2-22-16.5-24.4-26.9c-0.7-2.9-5.7-23.8,7.6-32.2
			c8.1-5.2,19.9-4,29.1,3.1c7,3.6,12.8,9.1,16.9,15.8c4,6.9,4.7,13.2,5.8,22.3c1,8.9,1,17.8-0.1,26.7c-2.5,20.8-8,41.1-16.3,60.3
			c-7,16-17.5,39.3-40.9,59.2c-5.8,5-12.7,10.8-23.5,15.8c-5.4,2.5-34.9,15.3-64.7,3.6c-25.6-10-37.1-32.5-45.6-49
			C-6.2,483.1-0.1,438.5,3.9,413.4c3.6-22.8,9.4-38.9,15.8-57.2c21.4-61.3,53.7-110.4,73-139.4c13.8-20.7,27.5-39.2,43.4-71.5
			c7.9-15.9,13.4-29.4,16.9-38.3c1.7,12.2,1.4,24.7-1,36.8c-3.6,17.9-10.9,29.9-19.4,44.4c-11.3,19.5-21.5,39.7-32.7,59.2
			c-23.4,41.4-43.7,84.4-60.8,128.7c-5.6,15.1-10.4,30.5-14.3,46.2c-8.8,35.3-8.2,51.5-5.4,64.5c1.3,7.1,3.7,14,6.9,20.5
			c0.2,0.4,0.5,1,0.9,1.7c15.8,29.5,43.5,36.6,43.5,36.6c15.2,3.9,27.8,0.7,34-1c12.8-3.5,24.4-10.2,33.9-19.4
			c9.1-8.6,17.1-18.2,24-28.6c1.8-2.8,2.4-3.8,16.9-32.1c9.1-17.8,13.7-26.9,14.8-35.3C195.3,421.2,194.6,413,192.3,405.3"/>
		<path class="st1" d="M22.8,749.9H2.1v-21.1c0-5.4,2.1-8.2,6.4-8.2h7.2c4.8,0,7.2,2.6,7.2,7.9L22.8,749.9z M11.1,715.5H3.2v-6.5
			h7.9V715.5z M15.7,743.6v-13c0-2.5-1.1-3.7-3.3-3.7c-2.1,0-3.2,1.2-3.2,3.7v13L15.7,743.6z M22.1,715.5h-7.9v-6.5h7.9V715.5z"/>
		<path class="st1" d="M47.2,749.9h-4.5c0,1.8-0.5,3.6-1.5,5.2c-0.9,1.6-2.4,2.7-4.2,3.2c-1.3,0.3-2.6,0.4-4,0.3H30v-5.2
			c2.3,0,3.8-0.3,4.5-0.9c0.8-0.7,1.2-1.8,1.1-2.9v-28.9h7v22.9h4.5V749.9z M42.9,715.5H35v-6.5h7.9V715.5z"/>
		<path class="st1" d="M70.6,743.5v6.4H47.2v-6.4h12.7v-22.9h7.1v22.9L70.6,743.5z M55.5,760.4h-7.9v-6.5h7.9V760.4z M66.5,760.4
			h-7.9v-6.5h7.9V760.4z"/>
		<path class="st1" d="M99.5,749.9H70.6v-6.4h4.7v-22.9H91c3.5,0,5.3,1.9,5.3,5.7v15.5c0,1.1,0.4,1.6,1.3,1.6h1.8V749.9z
			 M90.3,743.5c-0.7-0.5-1.1-1.3-1.1-2.2c0-0.2,0-0.4,0-0.5v-11.4c0-1.7-0.9-2.6-2.8-2.6h-4.1v13.5c0,1.7,0.7,2.8,2,3.1L90.3,743.5z
			"/>
		<path class="st1" d="M99.5,743.5h5v-22.9h15.8c3.5,0,5.3,1.9,5.3,5.7v15.5c0,1.1,0.4,1.6,1.3,1.6v6.4H99.5V743.5z M119.5,743.5
			c-0.7-0.5-1.1-1.3-1.1-2.2c0-0.2,0-0.4,0-0.5v-11.4c0-1.7-0.9-2.6-2.8-2.6h-4.1v13.5c0,1.7,0.7,2.8,2,3.1L119.5,743.5z"/>
		<path class="st1" d="M157.2,749.9h-4.5c0,1.8-0.5,3.6-1.5,5.2c-0.9,1.6-2.4,2.7-4.2,3.2c-1.3,0.3-2.6,0.4-4,0.3H140v-5.2
			c2.3,0,3.8-0.3,4.5-0.9c0.8-0.8,1.2-1.8,1.1-2.9v-28.9h7v22.9h4.5V749.9z"/>
		<path class="st1" d="M157.2,749.9v-6.4h12.7v-22.9h7.1v29.3L157.2,749.9z M166.2,715.5h-7.9v-6.5h7.9V715.5z M177.3,715.5h-7.9
			v-6.5h7.9V715.5z"/>
		<path class="st1" d="M210,749.9h-3.9v1.2c0,5.3-2.1,8-6.4,8h-15.4v-4.9h11c2.5,0,3.7-1.1,3.7-3.3c0-0.3,0-0.7-0.1-1h-14.6v-21.5
			c0-5.2,2.6-7.8,7.7-7.8h14v22.9h3.9V749.9z M198.9,743.5v-16.5h-3.5c-2.6,0-3.9,1.3-3.9,4v12.4H198.9z"/>
		<path class="st1" d="M233.4,743.5v6.4H210v-6.4h12.7v-22.9h7.1v22.9L233.4,743.5z M218.3,760.4h-7.9v-6.5h7.9V760.4z M229.4,760.4
			h-7.9v-6.5h7.9V760.4z"/>
		<path class="st1" d="M256.4,743.5v6.4h-23v-6.4h12.7v-22.9h7.1v22.9L256.4,743.5z M246.9,760.4H239v-6.5h7.9V760.4z"/>
		<path class="st1" d="M285.4,749.9h-28.9v-6.4h4.7v-22.9h15.8c3.5,0,5.3,1.9,5.3,5.7v15.5c0,1.1,0.4,1.6,1.3,1.6h1.8L285.4,749.9z
			 M276.1,743.5c-0.7-0.5-1.1-1.3-1.1-2.2c0-0.2,0-0.4,0-0.5v-11.4c0-1.7-0.9-2.6-2.8-2.6h-4.1v13.5c0,1.7,0.7,2.8,2,3.1
			L276.1,743.5z"/>
		<path class="st1" d="M285.4,749.9v-6.4h25.9V736c0-3-1.6-4.5-4.7-4.5h-16.1v-6.3l10.7-15.4h6.7L296.4,727l14.1,0
			c5.3,0,7.9,2.9,7.9,8.7v14.2L285.4,749.9z"/>
		<path class="st1" d="M360.8,743.5v6.4h-24.5v4.5c0,3.2,1.8,6,5.5,8.5c-8.2-0.8-12.4-3.4-12.4-7.6v-11.8h19.7c-1.2-0.6-1.8-2-1.8-4
			l0-7.4c0-3.8-1.8-5.7-5.6-5.7h-2.4v3.6h-6.8v-9.5h12.1c6.5,0,9.7,3.1,9.7,9.2l0,9.8c0,2.6,1.2,4,3.5,4L360.8,743.5z M350.3,760.4
			h-7.9v-6.5h7.9V760.4z"/>
		<path class="st1" d="M360.8,743.5h5v-22.9h15.8c3.5,0,5.3,1.9,5.3,5.7v15.5c0,1.1,0.4,1.6,1.3,1.6v6.4h-27.4L360.8,743.5z
			 M380.9,743.5c-0.7-0.5-1.1-1.3-1.1-2.2c0-0.2,0-0.4,0-0.5v-11.4c0-1.7-0.9-2.6-2.8-2.6H373v13.5c0,1.7,0.7,2.8,2,3.1L380.9,743.5
			z"/>
		<rect x="395.2" y="699.3" class="st1" width="7.1" height="50.6"/>
		<path class="st1" d="M426.5,749.9H422c0,1.8-0.5,3.6-1.5,5.2c-0.9,1.6-2.4,2.7-4.2,3.2c-1.3,0.3-2.6,0.4-4,0.3h-3.1v-5.2
			c2.3,0,3.8-0.3,4.5-0.9c0.8-0.8,1.2-1.8,1.1-2.9v-28.9h7v22.9h4.5V749.9z"/>
		<path class="st1" d="M426.5,749.9v-6.4h12.7v-22.9h7.1v29.3L426.5,749.9z M440.1,760.4h-7.9v-6.5h7.9V760.4z"/>
	</g>
</g>
</svg>
